<svg xmlns="http://www.w3.org/2000/svg" xmlns:xlink="http://www.w3.org/1999/xlink" width="800" zoomAndPan="magnify" viewBox="0 0 600 599.999999" height="800" preserveAspectRatio="xMidYMid meet" version="1.0"><defs><g/></defs><g fill="#ffffff" fill-opacity="1"><g transform="translate(254.497401, 341.514085)"><g><path d="M 23.164062 -0.75 C 20.351562 -0.75 18.289062 -3.65625 19.226562 -12.191406 C 20.070312 -21.195312 22.882812 -25.789062 26.070312 -25.789062 C 26.914062 -25.789062 28.605469 -24.757812 28.980469 -21.757812 C 29.261719 -20.726562 30.105469 -19.789062 30.949219 -19.789062 L 41.265625 -19.789062 C 42.765625 -19.789062 44.171875 -21.195312 44.546875 -22.601562 C 45.671875 -32.449219 37.417969 -39.578125 28.699219 -39.578125 C 11.347656 -39.578125 4.3125 -25.789062 4.78125 -12.191406 C 5.15625 -0.1875 10.785156 7.035156 22.320312 7.035156 C 29.074219 7.035156 36.480469 3.28125 39.199219 -3.09375 C 39.484375 -4.125 38.636719 -5.15625 37.417969 -5.15625 L 28.511719 -5.15625 C 27.664062 -5.15625 26.820312 -4.5 26.445312 -3.65625 C 25.601562 -1.5 24.007812 -0.75 23.164062 -0.75 Z M 23.164062 -0.75 "/></g></g></g><g fill="#ffffff" fill-opacity="1"><g transform="translate(298.479244, 341.514085)"><g><path d="M 24.851562 -46.890625 C 26.351562 -46.890625 27.476562 -48.578125 27.851562 -50.359375 L 31.136719 -66.492188 C 31.417969 -69.117188 30.574219 -70.992188 28.605469 -70.992188 L 13.128906 -70.992188 C 11.160156 -70.992188 9.847656 -69.117188 9.753906 -66.492188 L 8.816406 -50.359375 C 8.535156 -48.578125 9.660156 -46.890625 11.160156 -46.890625 Z M 16.035156 7.035156 C 16.976562 7.035156 17.820312 6.472656 18.101562 5.4375 L 25.132812 -35.167969 C 25.601562 -37.042969 24.570312 -38.167969 23.070312 -38.167969 L 10.785156 -38.167969 C 9.285156 -38.167969 8.253906 -37.042969 8.066406 -35.167969 L 5.722656 5.4375 C 5.53125 6.472656 6.003906 7.035156 7.410156 7.035156 Z M 16.035156 7.035156 "/></g></g></g><g fill="#ffffff" fill-opacity="1"><g transform="translate(327.831727, 341.514085)"><g><path d="M 38.167969 6.660156 C 39.296875 6.660156 39.953125 6.003906 40.421875 5.25 L 46.796875 -18.664062 C 50.078125 -30.292969 45.859375 -39.578125 33.386719 -39.578125 C 30.667969 -39.578125 25.882812 -38.730469 23.070312 -34.511719 C 23.164062 -35.636719 22.976562 -36.105469 22.976562 -36.855469 C 22.414062 -37.980469 21.664062 -38.824219 20.445312 -38.824219 L 8.253906 -38.824219 C 6.660156 -38.824219 5.34375 -37.511719 5.722656 -35.636719 C 6.003906 -32.355469 6.003906 -29.542969 6.378906 -26.164062 L 6.941406 5.25 C 7.316406 6.003906 7.878906 6.660156 9.003906 6.660156 L 17.726562 6.660156 C 18.851562 6.660156 19.601562 6.003906 19.601562 5.25 L 21.664062 -16.785156 C 21.945312 -22.039062 24.195312 -25.789062 27.476562 -25.789062 C 31.136719 -25.789062 32.261719 -22.132812 31.324219 -16.785156 L 27.851562 5.25 C 27.851562 6.003906 28.324219 6.660156 29.449219 6.660156 Z M 38.167969 6.660156 "/></g></g></g><g fill="#ffffff" fill-opacity="1"><g transform="translate(376.314905, 341.514085)"><g><path d="M 40.796875 -8.628906 C 42.015625 -8.628906 43.046875 -9.660156 43.421875 -10.691406 L 44.453125 -13.691406 C 47.734375 -27.851562 42.484375 -39.578125 27.195312 -39.578125 C 10.316406 -39.578125 3.375 -25.226562 3.65625 -12.191406 C 4.21875 -0.5625 10.691406 7.035156 22.132812 7.035156 C 29.167969 7.035156 36.667969 4.125 40.703125 -1.96875 C 41.546875 -3.375 40.890625 -4.40625 39.390625 -4.40625 L 29.730469 -4.40625 C 29.074219 -4.40625 28.039062 -3.84375 27.945312 -3.1875 C 26.820312 -1.03125 24.570312 -0.375 22.882812 -0.375 C 19.414062 -0.375 17.914062 -3.46875 17.914062 -8.628906 Z M 29.261719 -16.691406 L 18.382812 -16.691406 C 18.945312 -20.445312 20.726562 -26.726562 25.507812 -26.726562 C 29.917969 -26.726562 30.667969 -20.820312 30.386719 -17.445312 Z M 29.261719 -16.691406 "/></g></g></g><g fill="#ffffff" fill-opacity="1"><g transform="translate(422.828748, 341.514085)"><g><path d="M 18.757812 -37.699219 C 18.289062 -38.824219 17.351562 -38.824219 16.691406 -38.824219 L 4.3125 -38.824219 C 2.53125 -38.824219 1.59375 -37.511719 2.15625 -35.636719 L 3.5625 -26.351562 L 7.691406 5.25 C 7.972656 6.003906 8.535156 6.660156 9.660156 6.660156 L 18.289062 6.660156 C 19.414062 6.660156 20.164062 6.003906 20.164062 5.25 L 19.789062 -16.785156 C 19.882812 -22.039062 21.757812 -25.789062 25.039062 -25.789062 C 28.230469 -25.789062 30.199219 -22.039062 29.917969 -16.785156 L 28.230469 5.25 C 28.324219 6.003906 28.980469 6.660156 30.105469 6.660156 L 38.730469 6.660156 C 39.671875 6.660156 40.703125 6.003906 40.796875 5.25 L 44.828125 -16.976562 C 45.765625 -22.601562 48.578125 -25.789062 51.863281 -25.789062 C 54.863281 -25.789062 56.082031 -22.789062 54.769531 -16.785156 L 48.859375 5.25 C 48.859375 6.003906 49.234375 6.660156 50.359375 6.660156 L 59.082031 6.660156 C 60.207031 6.660156 61.144531 6.003906 61.425781 5.25 L 70.523438 -18.664062 C 74.652344 -30.292969 69.960938 -39.578125 57.863281 -39.578125 C 52.707031 -39.578125 46.421875 -37.136719 42.765625 -31.511719 C 39.953125 -37.980469 35.074219 -39.578125 29.917969 -39.578125 C 26.445312 -39.578125 21.757812 -37.980469 19.320312 -34.511719 Z M 18.757812 -37.699219 "/></g></g></g><g fill="#ffffff" fill-opacity="1"><g transform="translate(494.099974, 341.514085)"><g><path d="M 35.449219 6.660156 C 36.574219 6.660156 37.511719 5.816406 37.792969 5.15625 C 37.980469 3.75 38.355469 2.34375 38.730469 0.75 L 44.078125 -19.507812 C 47.453125 -32.730469 37.980469 -39.578125 25.976562 -39.578125 C 16.503906 -39.578125 6.285156 -33.292969 4.59375 -23.820312 C 4.3125 -22.226562 5.25 -21.101562 6.753906 -21.101562 L 17.351562 -21.101562 C 18.101562 -21.101562 19.132812 -21.757812 19.414062 -22.601562 C 21.007812 -25.695312 22.882812 -26.445312 24.851562 -26.445312 C 28.039062 -26.445312 29.542969 -23.539062 28.699219 -18.757812 L 28.511719 -17.164062 L 20.445312 -17.070312 C 11.160156 -16.785156 3.84375 -12.566406 4.40625 -4.03125 C 4.40625 3.84375 10.972656 6.941406 18.101562 6.941406 C 20.726562 6.941406 23.164062 6.566406 25.320312 5.816406 C 25.414062 6.660156 26.164062 6.660156 26.539062 6.660156 Z M 26.820312 -6.566406 C 26.070312 -1.96875 23.914062 -0.09375 20.445312 -0.09375 C 18.945312 -0.09375 17.164062 -1.40625 17.539062 -4.3125 C 17.820312 -6.941406 19.695312 -8.910156 21.289062 -8.910156 C 23.070312 -8.910156 25.507812 -9.003906 27.195312 -9.003906 Z M 26.820312 -6.566406 "/></g></g></g><g fill="#ffffff" fill-opacity="1"><g transform="translate(94.967927, 341.514085)"><g><path d="M 38.167969 6.660156 C 39.296875 6.660156 39.953125 6.003906 40.421875 5.25 L 46.796875 -18.664062 C 50.078125 -30.292969 45.859375 -39.578125 33.386719 -39.578125 C 30.667969 -39.578125 25.882812 -38.730469 23.070312 -34.511719 C 23.164062 -35.636719 22.976562 -36.105469 22.976562 -36.855469 C 22.414062 -37.980469 21.664062 -38.824219 20.445312 -38.824219 L 8.253906 -38.824219 C 6.660156 -38.824219 5.34375 -37.511719 5.722656 -35.636719 C 6.003906 -32.355469 6.003906 -29.542969 6.378906 -26.164062 L 6.941406 5.25 C 7.316406 6.003906 7.878906 6.660156 9.003906 6.660156 L 17.726562 6.660156 C 18.851562 6.660156 19.601562 6.003906 19.601562 5.25 L 21.664062 -16.785156 C 21.945312 -22.039062 24.195312 -25.789062 27.476562 -25.789062 C 31.136719 -25.789062 32.261719 -22.132812 31.324219 -16.785156 L 27.851562 5.25 C 27.851562 6.003906 28.324219 6.660156 29.449219 6.660156 Z M 38.167969 6.660156 "/></g></g></g><g fill="#ffffff" fill-opacity="1"><g transform="translate(143.451105, 341.514085)"><g><path d="M 37.605469 7.035156 C 38.730469 7.035156 39.484375 6.472656 39.953125 5.4375 L 46.515625 -18.476562 C 49.234375 -29.449219 44.921875 -38.824219 33.105469 -38.824219 C 30.292969 -38.824219 26.164062 -37.699219 22.976562 -33.292969 L 25.320312 -61.898438 C 25.414062 -64.054688 24.476562 -65.929688 22.507812 -65.929688 L 8.253906 -65.929688 C 6.285156 -65.929688 5.15625 -64.054688 4.96875 -61.898438 L 7.222656 5.4375 C 7.222656 6.472656 7.785156 7.035156 9.097656 7.035156 L 17.726562 7.035156 C 18.851562 7.035156 19.414062 6.472656 19.695312 5.4375 L 21.664062 -16.691406 C 22.039062 -21.570312 25.039062 -25.132812 27.476562 -25.132812 C 30.105469 -25.132812 31.980469 -21.570312 31.136719 -16.691406 L 27.664062 5.4375 C 27.382812 6.472656 28.136719 7.035156 29.074219 7.035156 Z M 37.605469 7.035156 "/></g></g></g><g fill="#ffffff" fill-opacity="1"><g transform="translate(191.934283, 341.514085)"><g><path d="M 35.449219 6.660156 C 36.574219 6.660156 37.511719 5.816406 37.792969 5.15625 C 37.980469 3.75 38.355469 2.34375 38.730469 0.75 L 44.078125 -19.507812 C 47.453125 -32.730469 37.980469 -39.578125 25.976562 -39.578125 C 16.503906 -39.578125 6.285156 -33.292969 4.59375 -23.820312 C 4.3125 -22.226562 5.25 -21.101562 6.753906 -21.101562 L 17.351562 -21.101562 C 18.101562 -21.101562 19.132812 -21.757812 19.414062 -22.601562 C 21.007812 -25.695312 22.882812 -26.445312 24.851562 -26.445312 C 28.039062 -26.445312 29.542969 -23.539062 28.699219 -18.757812 L 28.511719 -17.164062 L 20.445312 -17.070312 C 11.160156 -16.785156 3.84375 -12.566406 4.40625 -4.03125 C 4.40625 3.84375 10.972656 6.941406 18.101562 6.941406 C 20.726562 6.941406 23.164062 6.566406 25.320312 5.816406 C 25.414062 6.660156 26.164062 6.660156 26.539062 6.660156 Z M 26.820312 -6.566406 C 26.070312 -1.96875 23.914062 -0.09375 20.445312 -0.09375 C 18.945312 -0.09375 17.164062 -1.40625 17.539062 -4.3125 C 17.820312 -6.941406 19.695312 -8.910156 21.289062 -8.910156 C 23.070312 -8.910156 25.507812 -9.003906 27.195312 -9.003906 Z M 26.820312 -6.566406 "/></g></g></g><g fill="#2847c0" fill-opacity="1"><g transform="translate(59.999998, 339.279509)"><g><path d="M 35.585938 -67.144531 C 37.734375 -67.144531 39.34375 -69.558594 39.882812 -72.113281 L 44.582031 -95.207031 C 44.984375 -98.96875 43.777344 -101.652344 40.957031 -101.652344 L 18.800781 -101.652344 C 15.980469 -101.652344 14.101562 -98.96875 13.964844 -95.207031 L 12.621094 -72.113281 C 12.21875 -69.558594 13.832031 -67.144531 15.980469 -67.144531 Z M 22.960938 10.070312 C 24.304688 10.070312 25.515625 9.265625 25.917969 7.789062 L 35.988281 -50.355469 C 36.660156 -53.042969 35.183594 -54.652344 33.035156 -54.652344 L 15.441406 -54.652344 C 13.292969 -54.652344 11.816406 -53.042969 11.546875 -50.355469 L 8.191406 7.789062 C 7.921875 9.265625 8.59375 10.070312 10.609375 10.070312 Z M 22.960938 10.070312 "/></g></g></g></svg>